<?xml version="1.0" encoding="utf-8"?>
<!-- Generator: Adobe Illustrator 16.0.0, SVG Export Plug-In . SVG Version: 6.00 Build 0)  -->
<!DOCTYPE svg PUBLIC "-//W3C//DTD SVG 1.1//EN" "http://www.w3.org/Graphics/SVG/1.1/DTD/svg11.dtd">
<svg version="1.1" id="Слой_1" xmlns="http://www.w3.org/2000/svg" xmlns:xlink="http://www.w3.org/1999/xlink" x="0px" y="0px"
	 width="800px" height="600px" viewBox="0 0 800 600" enable-background="new 0 0 800 600" xml:space="preserve">
<g>
	<path d="M250.444,281.25l-0.833-1.084c-8.349-10.854-20.135-10.854-24.009-10.854c-10.802,0-20.704,3.946-27.877,11.105
		c-7.708,7.695-11.786,18.438-11.786,31.069c0,11.47,3.669,22.072,10.325,29.866c7.212,8.441,17.293,12.903,29.139,12.903
		c6.604,0,16.301-1.063,24.241-10.292l0.8-0.932l7.054,9.307h10.676v-81.507h-10.643L250.444,281.25z M245.189,332.541
		c-4.74,4.455-11.251,6.908-18.331,6.908c-7.437,0-14.146-2.909-18.893-8.184c-4.548-5.058-7.053-11.945-7.053-19.383
		c0-16.083,10.914-27.764,25.946-27.764c13.135,0,26.376,8.646,26.376,27.963C253.234,320.517,250.458,327.59,245.189,332.541z"/>
	<polygon points="351.491,270.882 329.981,270.882 303.932,296.307 303.923,271.179 286.472,271.179 286.472,352.687 
		303.923,352.687 303.923,322.133 303.98,312.715 336.328,352.687 357.118,352.687 318.005,304.423 	"/>
	<polygon points="370.425,352.339 387.876,352.339 387.876,286.697 417.624,286.697 417.624,352.339 435.075,352.339 
		435.075,286.697 464.822,286.697 464.822,352.339 482.274,352.339 482.274,270.832 370.425,270.832 	"/>
	<polygon points="542.237,328.47 516.733,270.835 496.137,270.806 532.69,350.484 519.86,381.536 537.818,381.536 586.488,270.806 
		567.321,270.806 	"/>
	<path d="M640.172,269.312c-10.372,0-18.231,3.365-24.029,10.293l-1.752,2.089v-10.861h-17.452v110.924h17.452V340.83l1.758,2.162
		c7.992,9.804,18.602,11.265,24.221,11.265c9.89,0,19.719-4.093,26.971-11.231c5.698-5.612,12.494-15.713,12.494-31.936
		c0-12.381-4.072-22.984-11.78-30.646C660.836,273.265,650.934,269.312,640.172,269.312z M638.632,339.449
		c-7.007,0-13.446-2.453-18.139-6.915c-5.203-4.951-7.953-12.018-7.953-20.452c0-8.766,2.75-16.037,7.953-21.042
		c4.641-4.462,11.085-6.921,18.139-6.921c14.88,0,25.675,11.681,25.675,27.764C664.307,327.86,653.512,339.449,638.632,339.449z"/>
	<path d="M136.704,269.973c-5.625,0-16.096,0-23.917,10.088l-0.086,0.092l-1.765,2.195l-0.013-2.79v-15.336H93.551v18.152
		l-1.844-2.294c-7.801-10.062-20.083-10.769-23.937-10.769c-10.749,0-20.532,3.94-27.546,11.1
		c-7.496,7.647-11.456,18.396-11.456,31.075c0,28.63,19.488,41.448,38.804,41.448l0.978,0.007
		c6.128,0.026,15.416,0.079,23.176-8.898l0.053-0.053c0.027-0.033,0.053-0.06,0.08-0.086l1.692-1.692v39.544h17.373v-39.98
		l1.765,2.208c0.033,0.04,0.06,0.073,0.086,0.1c7.741,8.938,17.009,8.885,23.15,8.858l0.979-0.007
		c19.309,0,38.803-12.818,38.81-41.448C175.713,286.657,160.04,269.973,136.704,269.973z M93.346,321.818
		c-1.692,5.44-4.912,9.844-9.188,12.891c-4.27,3.048-9.605,4.74-15.535,4.74c-7.371,0-14.021-2.909-18.721-8.19
		c-4.502-5.058-6.98-11.938-6.98-19.376c0-16.09,10.808-27.764,25.701-27.764c11.919,0,21.392,6.849,24.723,17.875
		c0.925,3.061,1.395,6.451,1.395,10.088C94.741,315.565,94.271,318.844,93.346,321.818z M135.7,339.449
		c-11.78,0-21.193-6.75-24.571-17.617c-0.925-2.994-1.395-6.273-1.395-9.75c0-3.623,0.47-7.027,1.395-10.107
		c3.312-11.014,12.732-17.855,24.571-17.855c7.357,0,13.968,2.889,18.615,8.145c4.475,5.057,6.941,12.024,6.934,19.619
		C161.249,327.854,150.507,339.449,135.7,339.449z"/>
	<path d="M760.588,270.832l-7.086,10.418l-0.833-1.084c-8.349-10.854-20.135-10.854-24.009-10.854
		c-10.802,0-20.704,3.946-27.876,11.105c-7.708,7.695-11.787,18.437-11.787,31.069c0,11.47,3.669,22.072,10.325,29.866
		c7.212,8.441,17.293,12.904,29.139,12.904c6.604,0,16.302-1.064,24.241-10.293l0.8-0.932l7.054,9.307h10.676v-81.507H760.588z
		 M748.247,332.541c-4.739,4.455-11.251,6.908-18.331,6.908c-7.437,0-14.146-2.909-18.893-8.184
		c-4.548-5.058-7.053-11.945-7.053-19.383c0-16.083,10.914-27.764,25.946-27.764c13.135,0,26.376,8.646,26.376,27.963
		C756.292,320.517,753.515,327.59,748.247,332.541z"/>
	<rect x="370.471" y="231.037" width="112.378" height="15.865"/>
</g>
</svg>
